<?xml version="1.0" encoding="utf-8"?>
<!-- Generator: Adobe Illustrator 25.2.1, SVG Export Plug-In . SVG Version: 6.00 Build 0)  -->
<svg version="1.1" id="Layer_1" xmlns="http://www.w3.org/2000/svg" xmlns:xlink="http://www.w3.org/1999/xlink" x="0px" y="0px"
	 viewBox="0 0 520.8 63.6" style="enable-background:new 0 0 520.8 63.6;" xml:space="preserve">
<style type="text/css">
	.st0{fill:none;stroke:#000000;}
	.st1{fill:none;stroke:#000000;stroke-width:0.5;}
</style>
<g>
	<path d="M7,4.4v-1c0-1.1-0.5-1.6-1.8-1.6c-1.3,0-1.8,0.5-1.8,1.6v6.4c0,1.1,0.4,1.6,1.7,1.6c1.3,0,1.8-0.8,1.8-2.1V7.8H4.9V6h4.6
		V13H7.3v-1c-0.4,0.6-1.2,1.2-2.9,1.2c-2.2,0-3.5-0.9-3.5-3.9V4c0-3,1.7-4,4.3-4c2.5,0,4.3,1.2,4.3,3.5v1H7z"/>
	<path d="M19.4,0.2v1.9h-5v3.2h4.5v1.9h-4.5v3.9h5V13h-7.5V0.2H19.4z"/>
	<path d="M30.7,0.2V13h-3.1l-3.4-9.8V13h-2.5V0.2h3.1l3.4,9.7V0.2H30.7z"/>
	<path d="M41,0.2v1.9h-3.1V13h-2.5V2.1h-3.1V0.2H41z"/>
	<path d="M45.1,11.1H50V13h-7.4V0.2h2.5V11.1z"/>
	<path d="M59.1,0.2v1.9h-5v3.2h4.5v1.9h-4.5v3.9h5V13h-7.5V0.2H59.1z"/>
	<path d="M76.7,0.2V13h-2.5V3.2L72.1,13h-2L68,3.2V13h-2.5V0.2H69l2.1,9.8l2.1-9.8H76.7z"/>
	<path d="M87.6,4.2v4.9c0,3.1-1.5,4.2-4.3,4.2c-2.7,0-4.3-1-4.3-4.2V4.2c0-3.1,1.5-4.2,4.3-4.2C86.1,0,87.6,1.1,87.6,4.2z M85.1,3.6
		c0-1.3-0.5-1.7-1.8-1.7s-1.8,0.4-1.8,1.7v6.1c0,1.3,0.5,1.7,1.8,1.7s1.8-0.4,1.8-1.7V3.6z"/>
	<path d="M99,0.2V13h-3.1l-3.4-9.8V13h-2.5V0.2h3.1l3.4,9.7V0.2H99z"/>
	<path d="M109.3,3.2V4h-2.5V3.3c0-1.1-0.2-1.5-1.4-1.5c-1.2,0-1.4,0.5-1.4,1.4c0,0.7,0.2,1.1,0.9,1.5l2.4,1.6
		c1.3,0.9,2.1,1.4,2.1,3.6c0,2.3-1.5,3.4-3.9,3.4c-2.9,0-4.1-1-4.1-3.3V8.8h2.5v1c0,1.4,0.4,1.7,1.6,1.7s1.4-0.5,1.4-1.4
		c0-0.9-0.1-1.3-1-1.9l-2.4-1.6c-1.5-1-2-1.5-2-3.4c0-1.6,0.9-3.2,3.9-3.2C108.3,0,109.3,1.3,109.3,3.2z"/>
	<path d="M119.3,0.2v1.9h-3.1V13h-2.5V2.1h-3.1V0.2H119.3z"/>
	<path d="M128.4,0.2v1.9h-5v3.2h4.5v1.9h-4.5v3.9h5V13h-7.5V0.2H128.4z"/>
	<path d="M138.7,8.7v2.7c0,0.7,0.2,1.2,0.5,1.6h-2.6c-0.2-0.3-0.4-0.9-0.4-1.6V8.7c0-1-0.4-1.3-1.3-1.3h-1.7V13h-2.5V0.2h4.6
		c3.3,0,3.8,1.8,3.8,3.6c0,1.4-0.8,2.4-2.6,2.7C138,6.6,138.7,7.5,138.7,8.7z M134.9,5.5c1.4,0,1.6-0.6,1.6-1.7s-0.2-1.7-1.6-1.7
		h-1.8v3.3H134.9z"/>
</g>
<g id="visionizer_title">
	<g id="Group_755">
		<path id="Path_110" class="st0" d="M464.2,57.1l-1.1,5.8H415l5.1-26.3h48.1l-1.1,5.8h-42.3l-0.9,4.5h42.3l-1.1,5.8h-42.3l-0.9,4.6
			L464.2,57.1z"/>
	</g>
	<g id="Group_756">
		<path id="Path_111" class="st0" d="M141.2,57.1c0.5,0,1.1-0.2,1.5-0.5c0.5-0.4,0.8-1,0.9-1.6l0.1-0.5c0.2-0.5,0.1-1.1-0.2-1.6
			c-0.4-0.3-0.9-0.5-1.4-0.4h-34.9c-0.7,0-1.4-0.1-2-0.4c-0.6-0.2-1.1-0.6-1.5-1.1c-0.4-0.5-0.7-1.1-0.8-1.8c-0.2-0.8-0.2-1.7,0-2.5
			l0.9-4.5c0.3-1.7,1.2-3.2,2.5-4.3c1.1-0.9,2.5-1.5,4-1.5H153l-1.1,5.7h-40.3c-0.5,0-1.1,0.1-1.6,0.4c-0.5,0.4-0.8,0.9-0.8,1.5
			l-0.1,0.5c-0.2,0.6-0.1,1.2,0.3,1.6c0.4,0.3,0.9,0.5,1.3,0.5h34.8c1.3,0,2.6,0.5,3.5,1.6c0.9,1.2,1.2,2.8,0.8,4.2l-0.9,4.5
			c-0.3,1.7-1.2,3.2-2.5,4.2c-1.1,1-2.6,1.5-4.1,1.5H99.9l1.1-5.7L141.2,57.1z"/>
	</g>
	<g id="Group_757">
		<path id="Path_112" class="st0" d="M95.6,62.8h-48l1.1-5.7h21.1l2.9-14.8H51.5l1.1-5.8h48.1l-1.1,5.8H78.4l-2.9,14.8h21.2
			L95.6,62.8z"/>
	</g>
	<g id="Group_758">
		<path id="Path_113" class="st0" d="M356.8,62.8h-48l1.1-5.7H331l2.9-14.8h-21.1l1.1-5.8h48.1l-1.1,5.8h-21.2l-2.9,14.8h21.2
			L356.8,62.8z"/>
	</g>
	<g id="Group_759">
		<path id="Path_114" class="st0" d="M201.1,62.8H153l1.1-5.7h21.1l2.9-14.8H157l1.1-5.8h48l-1.1,5.8h-21.1L181,57.1h21.2
			L201.1,62.8z"/>
	</g>
	<g id="Group_760">
		<path id="Path_115" class="st0" d="M517.8,36.9c1.3,0.5,2.2,1.7,2.4,3c0.2,0.8,0.2,1.6,0,2.4l-0.9,4.5c-0.3,1.4-0.9,2.7-1.9,3.8
			c-0.9,0.9-2,1.5-3.2,1.8l2.1,10.5h-5.9l-2.6-10.3h-31.8l-2,10.3h-5.8l5.1-26.3h42.6C516.5,36.5,517.2,36.7,517.8,36.9 M477,46.8
			h34.5c0.5,0,1-0.1,1.5-0.3c0.5-0.3,0.8-0.8,0.9-1.4l0.1-0.6c0.2-0.5,0.1-1.2-0.2-1.6c-0.4-0.4-0.9-0.5-1.5-0.5h-34.4L477,46.8z"/>
	</g>
	<g id="Group_761">
		<path id="Path_116" class="st0" d="M252.8,36.5c0.7,0,1.4,0.1,2,0.4c1.3,0.5,2.2,1.7,2.4,3c0.1,0.8,0.1,1.6,0,2.4l-2.9,14.8
			c-0.2,0.9-0.5,1.7-1,2.5c-0.4,0.7-1,1.3-1.6,1.8c-0.6,0.5-1.3,0.9-2,1.1c-0.7,0.2-1.4,0.4-2.1,0.4h-37.1c-0.7,0-1.4-0.1-2-0.4
			c-0.6-0.2-1.1-0.6-1.5-1.1c-0.4-0.5-0.7-1.1-0.9-1.8c-0.2-0.8-0.2-1.6,0-2.5l2.9-14.8c0.2-0.9,0.5-1.7,0.9-2.4
			c0.8-1.4,2-2.4,3.5-2.9c0.7-0.2,1.4-0.4,2.1-0.4L252.8,36.5z M246.5,57.1c0.6,0,1.1-0.3,1.5-0.7c0.5-0.5,0.9-1.1,1-1.8l1.9-9.9
			c0.2-0.6,0.1-1.2-0.2-1.8c-0.3-0.5-0.8-0.7-1.4-0.7h-32.6c-0.6,0-1.2,0.2-1.7,0.7c-0.4,0.5-0.7,1.1-0.8,1.8l-2,9.9
			c-0.2,0.6-0.1,1.2,0.2,1.8c0.3,0.4,0.7,0.7,1.2,0.7H246.5z"/>
	</g>
	<g id="Group_762">
		<path id="Path_117" class="st0" d="M17.6,62.8h5.7l26.2-26.3h-7.1L21.6,57.2L8.7,36.5H0.9L17.6,62.8z"/>
	</g>
	<g id="Group_763">
		<path id="Path_118" class="st0" d="M263,63.1h-5.7c1.9-8.9,3.8-17.8,5.7-26.7h5.1l31.5,21.8c1.4-7.3,2.8-14.7,4.2-22h5.7
			l-4.7,26.9h-8l-29.6-20.4C265.8,49.5,264.4,56.3,263,63.1"/>
	</g>
	<g id="Group_764">
		<path id="Path_119" class="st0" d="M367,36.8h48l-1.1,5.8l-35.6,14.6l32.7,0.2l-1.1,5.8h-48l1.1-5.7l37.4-14.7l-34.5-0.1L367,36.8
			"/>
	</g>
</g>
<g id="marineserre_logo">
	<path id="Path_120" d="M383.9,12.8v-0.5h0.2c1.2,0,1.5-0.4,1.5-1.5V2.3c0-1.2-0.4-1.5-1.6-1.5h0V0.3h3.9l3.5,9.8l3.5-9.8h3.7v0.5
		c-1.2,0-1.5,0.4-1.5,1.5v8.5c0,1.2,0.4,1.5,1.5,1.5v0.5h-4.8v-0.5c1.1,0,1.5-0.3,1.5-1.5V0.9h-0.1l-4.3,11.9h-0.5l-4.2-11.9h-0.1
		v9.9c0,1.3,0.5,1.5,1.6,1.5h0.1v0.5L383.9,12.8z"/>
	<path id="Path_121" d="M407.4,7.8l-1.9-5.9l-2,5.9H407.4z M399.9,12.3h0.1c0.9,0,1.7-0.6,1.8-1.5l2.9-8.5c0.1-0.2,0.2-0.5,0.2-0.7
		c0-0.3-0.1-0.6-0.3-0.9l-0.2-0.4h2.1l3.3,10c0.3,1.1,0.8,2,1.9,2v0.5h-5v-0.5c1,0,1.4-0.4,1.5-1.1c0-0.3-0.1-0.5-0.2-0.8v-0.1
		l-0.6-1.9h-4.3l-0.6,2c-0.1,0.3-0.2,0.6-0.2,0.9c0,0.7,0.5,1,1.4,1.1v0.5H400L399.9,12.3z"/>
	<path id="Path_122" d="M416.4,6.5h0.8c2,0,3.2-0.5,3.2-2.8c0-1.9-0.8-2.9-2.5-2.9h-0.2c-0.9,0-1.2,0.3-1.2,1.3V6.5z M418,0.3
		c2,0,4.2,0.9,4.2,3.4c0,1.5-1,2.8-2.5,3.1l3,4.7c0.3,0.5,0.7,0.8,1.3,0.8h0.1v0.5h-2.6L417.8,7h-1.4v3.8c0,1.2,0.4,1.5,1.5,1.5v0.5
		h-4.8v-0.5c1.1,0,1.6-0.3,1.6-1.5V2.3c0-1.1-0.4-1.5-1.6-1.5V0.3L418,0.3z"/>
	<path id="Path_123" d="M425.5,0.3h4.8v0.5c-1.1,0-1.5,0.4-1.5,1.5v8.5c0,1.2,0.4,1.5,1.5,1.5v0.4h-4.8v-0.4c1.2,0,1.6-0.4,1.6-1.5
		V2.3c0-1.2-0.4-1.5-1.6-1.5V0.3z"/>
	<path id="Path_124" d="M432,12.3h0.1c1.1,0,1.6-0.3,1.6-1.5V2.3c0-1.1-0.4-1.5-1.6-1.5H432V0.3h3l7.4,9.8V2.3
		c0-1.3-0.4-1.5-1.6-1.5h-0.1V0.3h3.9v0.5h-0.2c-1.2,0-1.6,0.4-1.6,1.5v10.7h-0.5l-8.2-10.9v8.6c0,1.1,0.4,1.5,1.5,1.5h0.2v0.5H432
		V12.3z"/>
	<path id="Path_125" d="M446,0.3h8.7l1.3,2.9h-0.5c-1-1.5-2.1-2.4-3.9-2.4h-1c-0.9,0-1.2,0.3-1.2,1.3V6h1.3c1.5,0,2.1-0.6,2.3-2.1
		h0.4v4.7H453c-0.2-1.6-0.7-2.2-2.3-2.2h-1.4v4.3c0,1.3,0.5,1.5,1.7,1.5h0.5c1.9,0,3-1.3,4.1-2.7h0.5l-0.9,3.2H446v-0.4
		c1.2,0,1.6-0.4,1.6-1.5V2.3c0-1.2-0.4-1.5-1.6-1.5V0.3z"/>
	<path id="Path_126" d="M469.5,0.4c0.3,0.1,0.7,0.3,1,0.3c0.2,0,0.3-0.1,0.4-0.2l0.1-0.1h0.4l0.5,3.7l-0.4,0.1
		c-0.5-1.8-1.5-3.5-3.4-3.5c-1.3-0.1-2.5,0.9-2.7,2.2c0,0,0,0,0,0v0.1c0,1.6,1.6,2.1,2.3,2.2l2.1,0.5c1.9,0.2,3.3,1.8,3.2,3.7
		c0,2.1-1.6,3.8-3.7,3.8H469c-1.9,0-2.5-0.8-3.4-0.8c-0.3,0-0.7,0.2-0.7,0.6h-0.5v-4h0.4c0.2,1,0.8,2,1.5,2.7c0.7,0.7,1.7,1,2.7,1
		c1.3,0.1,2.5-0.9,2.7-2.2c0,0,0,0,0,0c0-0.1,0-0.3,0-0.4c0-1.6-1.3-2.3-3.4-2.7c-1-0.1-2-0.4-2.8-1c-0.8-0.6-1.2-1.6-1.2-2.7
		c0-1.9,1.5-3.5,3.4-3.6h0.3C468.5,0,469.1,0.1,469.5,0.4"/>
	<path id="Path_127" d="M474.4,0.3h8.7l1.2,2.8h-0.5c-1-1.5-2.1-2.4-3.9-2.4h-1c-0.9,0-1.2,0.3-1.2,1.3V6h1.3c1.5,0,2.1-0.6,2.3-2.1
		h0.4v4.7h-0.4c-0.2-1.6-0.7-2.2-2.3-2.2h-1.3v4.3c0,1.3,0.5,1.5,1.7,1.5h0.5c1.9,0,3-1.3,4.1-2.7h0.5l-0.9,3.2h-9.2v-0.4
		c1.2,0,1.6-0.4,1.6-1.5V2.3c0-1.2-0.4-1.5-1.6-1.5L474.4,0.3z"/>
	<path id="Path_128" d="M489.4,6.5h0.8c2,0,3.2-0.5,3.2-2.8c0-1.9-0.8-2.9-2.5-2.9h-0.2c-0.9,0-1.2,0.3-1.2,1.3V6.5z M491,0.3
		c2,0,4.2,0.9,4.2,3.4c0,1.5-1,2.7-2.5,3.1l3,4.7c0.3,0.5,0.7,0.8,1.3,0.8h0.1v0.5h-2.6L490.8,7h-1.4v3.8c0,1.2,0.4,1.5,1.5,1.5v0.5
		h-4.8v-0.5c1.1,0,1.6-0.3,1.6-1.5V2.3c0-1.1-0.4-1.5-1.6-1.5V0.3L491,0.3z"/>
	<path id="Path_129" d="M501.5,6.5h0.8c2,0,3.2-0.5,3.2-2.8c0-1.9-0.8-2.9-2.5-2.9h-0.2c-0.9,0-1.2,0.3-1.2,1.3V6.5z M503,0.3
		c2,0,4.2,0.9,4.2,3.4c0,1.5-1,2.8-2.5,3.1l3,4.7c0.3,0.5,0.7,0.8,1.3,0.8h0.1v0.5h-2.6L502.8,7h-1.4v3.8c0,1.2,0.4,1.5,1.5,1.5v0.5
		h-4.8v-0.5c1.1,0,1.6-0.3,1.6-1.5V2.3c0-1.1-0.4-1.5-1.6-1.5V0.3L503,0.3z"/>
	<path id="Path_130" d="M510.1,0.3h8.7l1.3,2.9h-0.5c-1-1.5-2.1-2.4-3.9-2.4h-1c-0.9,0-1.2,0.3-1.2,1.3V6h1.3c1.5,0,2.1-0.6,2.3-2.1
		h0.4v4.7H517c-0.2-1.6-0.7-2.2-2.3-2.2h-1.3v4.3c0,1.3,0.5,1.5,1.7,1.5h0.6c1.9,0,3-1.3,4.2-2.7h0.5l-0.9,3.2h-9.2v-0.4
		c1.2,0,1.6-0.4,1.6-1.5V2.3c0-1.2-0.4-1.5-1.6-1.5L510.1,0.3z"/>
</g>
<line id="Line_1" class="st1" x1="150" y1="6.6" x2="376" y2="6.6"/>
<circle id="Ellipse_208" cx="150" cy="6.6" r="2"/>
<circle id="Ellipse_209" cx="376" cy="6.6" r="2"/>
</svg>
